HIERARCHY
ROOT hip
{
  OFFSET 0 0 0
  CHANNELS 6 Xposition Yposition Zposition Zrotation Yrotation Xrotation
  JOINT abdomen
  {
    OFFSET 0 20.6881 -0.73152
    CHANNELS 3 Zrotation Xrotation Yrotation
    JOINT chest
    {
      OFFSET 0 11.7043 -0.48768
      CHANNELS 3 Zrotation Xrotation Yrotation
      JOINT neck
      {
        OFFSET 0 22.1894 -2.19456
        CHANNELS 3 Zrotation Xrotation Yrotation
        JOINT head
        {
          OFFSET -0.24384 7.07133 1.2192
          CHANNELS 3 Zrotation Xrotation Yrotation
          JOINT leftEye
          {
            OFFSET 4.14528 8.04674 8.04672
            CHANNELS 3 Zrotation Xrotation Yrotation
            End Site
            {
              OFFSET 1 0 0
            }
          }
          JOINT rightEye
          {
            OFFSET -3.6576 8.04674 8.04672
            CHANNELS 3 Zrotation Xrotation Yrotation
            End Site
            {
              OFFSET 1 0 0
            }
          }
        }
      }
      JOINT rCollar
      {
        OFFSET -2.68224 19.2634 -4.8768
        CHANNELS 3 Zrotation Xrotation Yrotation
        JOINT rShldr
        {
          OFFSET -8.77824 -1.95073 1.46304
          CHANNELS 3 Zrotation Xrotation Yrotation
          JOINT rForeArm
          {
            OFFSET -28.1742 -1.7115 0.48768
            CHANNELS 3 Zrotation Xrotation Yrotation
            JOINT rHand
            {
              OFFSET -22.5879 0.773209 7.07136
              CHANNELS 3 Zrotation Xrotation Yrotation
              JOINT rThumb1
              {
                OFFSET -1.2192 -0.487915 3.41376
                CHANNELS 3 Zrotation Xrotation Yrotation
                JOINT rThumb2
                {
                  OFFSET -3.37035 -0.52449 3.41376
                  CHANNELS 3 Zrotation Xrotation Yrotation
                  End Site
                  {
                    OFFSET -1.78271 -1.18214 1.43049
                  }
                }
              }
              JOINT rIndex1
              {
                OFFSET -7.75947 0.938293 5.60832
                CHANNELS 3 Zrotation Xrotation Yrotation
                JOINT rIndex2
                {
                  OFFSET -2.54057 -0.884171 1.56538
                  CHANNELS 3 Zrotation Xrotation Yrotation
                  End Site
                  {
                    OFFSET -1.62519 -0.234802 1.16502
                  }
                }
              }
              JOINT rMid1
              {
                OFFSET -8.24714 1.18213 3.41376
                CHANNELS 3 Zrotation Xrotation Yrotation
                JOINT rMid2
                {
                  OFFSET -3.10165 -0.590103 1.0647
                  CHANNELS 3 Zrotation Xrotation Yrotation
                  End Site
                  {
                    OFFSET -2.48547 -0.328903 0.83742
                  }
                }
              }
              JOINT rRing1
              {
                OFFSET -8.82822 0.546677 1.51678
                CHANNELS 3 Zrotation Xrotation Yrotation
                JOINT rRing2
                {
                  OFFSET -2.60934 -0.819778 -0.0198488
                  CHANNELS 3 Zrotation Xrotation Yrotation
                  End Site
                  {
                    OFFSET -2.33842 -0.294052 0.168128
                  }
                }
              }
              JOINT rPinky1
              {
                OFFSET -8.27202 -0.0477905 -0.4584
                CHANNELS 3 Zrotation Xrotation Yrotation
                JOINT rPinky2
                {
                  OFFSET -1.82734 -0.647385 -0.700984
                  CHANNELS 3 Zrotation Xrotation Yrotation
                  End Site
                  {
                    OFFSET -1.69225 -0.51767 -0.607171
                  }
                }
              }
            }
          }
        }
      }
      JOINT lCollar
      {
        OFFSET 2.68224 19.2634 -4.8768
        CHANNELS 3 Zrotation Xrotation Yrotation
        JOINT lShldr
        {
          OFFSET 8.77824 -1.95073 1.46304
          CHANNELS 3 Zrotation Xrotation Yrotation
          JOINT lForeArm
          {
            OFFSET 28.1742 -1.7115 0.48768
            CHANNELS 3 Zrotation Xrotation Yrotation
            JOINT lHand
            {
              OFFSET 22.5879 0.773209 7.07136
              CHANNELS 3 Zrotation Xrotation Yrotation
              JOINT lThumb1
              {
                OFFSET 1.2192 -0.487915 3.41376
                CHANNELS 3 Zrotation Xrotation Yrotation
                JOINT lThumb2
                {
                  OFFSET 3.37035 -0.52449 3.41376
                  CHANNELS 3 Zrotation Xrotation Yrotation
                  End Site
                  {
                    OFFSET 1.78271 -1.18214 1.43049
                  }
                }
              }
              JOINT lIndex1
              {
                OFFSET 7.75947 0.938293 5.60832
                CHANNELS 3 Zrotation Xrotation Yrotation
                JOINT lIndex2
                {
                  OFFSET 2.54057 -0.884171 1.56538
                  CHANNELS 3 Zrotation Xrotation Yrotation
                  End Site
                  {
                    OFFSET 1.62519 -0.234802 1.16502
                  }
                }
              }
              JOINT lMid1
              {
                OFFSET 8.24714 1.18213 3.41376
                CHANNELS 3 Zrotation Xrotation Yrotation
                JOINT lMid2
                {
                  OFFSET 3.10165 -0.590103 1.0647
                  CHANNELS 3 Zrotation Xrotation Yrotation
                  End Site
                  {
                    OFFSET 2.48547 -0.328903 0.83742
                  }
                }
              }
              JOINT lRing1
              {
                OFFSET 8.82822 0.546677 1.51678
                CHANNELS 3 Zrotation Xrotation Yrotation
                JOINT lRing2
                {
                  OFFSET 2.60934 -0.819778 -0.0198488
                  CHANNELS 3 Zrotation Xrotation Yrotation
                  End Site
                  {
                    OFFSET 2.33842 -0.294052 0.168128
                  }
                }
              }
              JOINT lPinky1
              {
                OFFSET 8.27202 -0.0477905 -0.4584
                CHANNELS 3 Zrotation Xrotation Yrotation
                JOINT lPinky2
                {
                  OFFSET 1.82734 -0.647385 -0.700984
                  CHANNELS 3 Zrotation Xrotation Yrotation
                  End Site
                  {
                    OFFSET 1.69225 -0.51767 -0.607171
                  }
                }
              }
            }
          }
        }
      }
    }
  }
  JOINT rButtock
  {
    OFFSET -8.77824 4.35084 1.2192
    CHANNELS 3 Zrotation Xrotation Yrotation
    JOINT rThigh
    {
      OFFSET 0 -1.70687 -2.19456
      CHANNELS 3 Zrotation Xrotation Yrotation
      JOINT rShin
      {
        OFFSET 0 -36.8199 0.73152
        CHANNELS 3 Zrotation Xrotation Yrotation
        JOINT rFoot
        {
          OFFSET 0.73152 -45.1104 -5.12064
          CHANNELS 3 Zrotation Xrotation Yrotation
          End Site
          {
            OFFSET -1.1221 -3.69964 12.103
          }
        }
      }
    }
  }
  JOINT lButtock
  {
    OFFSET 8.77824 4.35084 1.2192
    CHANNELS 3 Zrotation Xrotation Yrotation
    JOINT lThigh
    {
      OFFSET 0 -1.70687 -2.19456
      CHANNELS 3 Zrotation Xrotation Yrotation
      JOINT lShin
      {
        OFFSET 0 -36.8199 0.73152
        CHANNELS 3 Zrotation Xrotation Yrotation
        JOINT lFoot
        {
          OFFSET -0.73152 -45.1104 -5.12064
          CHANNELS 3 Zrotation Xrotation Yrotation
          End Site
          {
            OFFSET 1.1221 -3.69964 12.103
          }
        }
      }
    }
  }
}
MOTION
Frames:	4
Frame Time:	0.00833333
-41.6264 69.2961 -122.859 -3.468 -4.1061006 3.817 0.341673 10.6647005 -6.31357 4.42271 -8.893941 -1.51372 0.23283102 8.981739 3.0491402 -0.7013692 -17.263403 5.866611 0.0 0.0 0.0 0.0 0.0 0.0 6.45761e-14 2.37645e-13 -1.28283e-13 105.28901 46.3928 -53.986702 -27.876001 -41.0233 85.7757 -24.191109 -74.8563 -31.2852 1.64354e-09 -4.0552e-09 -7.9427204e-10 2.86221e-09 -6.8675403e-09 -1.2553399e-09 1.64354e-09 -4.05518e-09 -7.9428497e-10 7.730911 5.47488 0.41731405 1.64353e-09 -4.05518e-09 -7.9427204e-10 2.90554 0.965183 0.102902 1.6435501e-09 -4.05519e-09 -7.94275e-10 10.2786 0.73180103 0.025912303 1.64353e-09 -4.05518e-09 -7.94259e-10 2.2216702 -0.733487 -0.20892 6.44845e-14 2.3764798e-13 -1.28448e-13 9.1187935 45.014606 -106.38299 24.4617 -19.9855 -51.1054 1.0539899 27.828299 -4.25431 -7.02876e-10 -8.6550704e-11 -3.22113e-10 -1.21706e-09 -1.5085999e-10 -5.3716803e-10 -7.02901e-10 -8.65418e-11 -3.2209702e-10 -7.730911 5.47488 -0.41731405 -7.02876e-10 -8.6550295e-11 -3.22109e-10 -2.90554 0.965183 -0.102902 -7.0290296e-10 -8.65429e-11 -3.22109e-10 -10.2786 0.73180103 -0.025912303 -7.02867e-10 -8.65505e-11 -3.2212e-10 -2.2216702 -0.733487 0.20892 -2.03217e-16 8e-44 -3.88251e-19 -16.784302 -46.6563 -11.4215975 -3.2706008 75.586006 3.6029596 -8.294271 -21.491302 -13.406702 2.03217e-16 8e-44 3.88251e-19 33.8297 -42.6639 21.0614 2.3746 71.9259 -2.7873707 -3.04203 -29.023798 -6.24559
-41.4631 69.173996 -122.725 -3.4363997 -3.9521997 3.6779997 0.34210795 10.486899 -6.1963196 4.3167396 -8.87932 -1.4912899 0.165184 8.84699 2.9688103 -0.69699484 -16.705297 5.7166395 0.0 0.0 0.0 0.0 0.0 0.0 5.84476e-14 1.5016799e-13 -1.2058101e-13 105.39199 46.2725 -54.1563 -27.8774 -41.0166 85.7635 -24.00049 -74.774 -31.08781 1.2053301e-09 -2.98773e-09 -5.80892e-10 2.09791e-09 -5.05734e-09 -9.1790897e-10 1.2053301e-09 -2.98771e-09 -5.80904e-10 7.730911 5.47488 0.41731405 1.20532e-09 -2.98772e-09 -5.80893e-10 2.90554 0.965183 0.102902 1.2053301e-09 -2.98772e-09 -5.80894e-10 10.2786 0.73180103 0.025912303 1.20532e-09 -2.98771e-09 -5.8087696e-10 2.2216702 -0.733487 -0.20892 5.84478e-14 1.5017e-13 -1.20742e-13 5.4530573 44.8182 -103.498 24.223198 -19.5199 -50.324 1.10714 28.442001 -4.36587 -8.44565e-10 3.33718e-11 -3.83189e-10 -1.46442e-09 6.0334404e-11 -6.39035e-10 -8.4458907e-10 3.3381e-11 -3.83172e-10 -7.730911 5.47488 -0.41731405 -8.44564e-10 3.3372798e-11 -3.83182e-10 -2.90554 0.965183 -0.102902 -8.44594e-10 3.33799e-11 -3.83184e-10 -10.2786 0.73180103 -0.025912303 -8.4456203e-10 3.3375e-11 -3.83193e-10 -2.2216702 -0.733487 0.20892 -2.03217e-16 8e-44 -3.88251e-19 -16.9967 -46.494602 -11.6078005 -3.324262 75.775604 3.6632411 -8.36572 -21.584198 -13.5039 2.03217e-16 8e-44 3.88251e-19 33.783203 -42.7797 21.032799 2.4453614 72.2955 -2.8550797 -2.9868805 -29.214802 -6.11406
-41.3303 69.0564 -122.603004 -3.5298998 -3.7495 3.601 0.36408198 10.3043 -6.1602497 4.23603 -8.87401 -1.48922 0.10035598 8.8272505 2.9065402 -0.747199 -16.335098 5.59352 0.0 0.0 0.0 0.0 0.0 0.0 -3.0944e-15 -6.45439e-14 -8.8495305e-14 105.521 46.212402 -54.388905 -27.879 -41.0093 85.7501 -23.647297 -74.6183 -30.721514 2.22146e-10 -4.67551e-10 -4.7549402e-11 3.80526e-10 -7.81077e-10 -6.9862595e-11 2.22146e-10 -4.6754e-10 -4.75571e-11 7.730911 5.47488 0.41731405 2.22144e-10 -4.67548e-10 -4.7555102e-11 2.90554 0.965183 0.102902 2.2214801e-10 -4.67549e-10 -4.75505e-11 10.2786 0.73180103 0.025912303 2.2214e-10 -4.67547e-10 -4.75414e-11 2.2216702 -0.733487 -0.20892 -3.03709e-15 -6.45412e-14 -8.8717804e-14 1.8448821 44.448795 -100.679 23.9758 -19.051802 -49.534702 1.1341399 28.752401 -4.4225597 -4.59828e-10 -3.4529598e-11 -6.43598e-10 -8.08988e-10 -4.7440298e-11 -1.0949e-09 -4.59836e-10 -3.45283e-11 -6.43592e-10 -7.730911 5.47488 -0.41731405 -4.59827e-10 -3.45291e-11 -6.43593e-10 -2.90554 0.965183 -0.102902 -4.5984003e-10 -3.45278e-11 -6.43597e-10 -10.2786 0.73180103 -0.025912303 -4.59826e-10 -3.45265e-11 -6.43606e-10 -2.2216702 -0.733487 0.20892 -2.03217e-16 8e-44 -3.88251e-19 -17.2524 -46.318398 -11.852198 -3.3788495 75.9625 3.7235193 -8.381731 -21.764898 -13.468601 2.03217e-16 8e-44 3.88251e-19 33.649 -42.9343 20.868795 2.5161998 72.651 -2.9230795 -2.8862803 -29.3904 -5.91208
-41.2022 68.9427 -122.492004 -3.5458999 -3.5659997 3.5230002 0.35408303 10.115801 -6.10491 4.2108397 -8.88526 -1.4772999 0.031216089 8.888149 2.8486 -0.79281896 -16.040901 5.47973 0.0 0.0 0.0 0.0 0.0 0.0 8.49051e-15 -8.20301e-14 -5.60278e-14 105.65901 46.1517 -54.657703 -27.885695 -40.978798 85.69419 -23.222094 -74.425705 -30.280312 -1.05752004e-10 3.5126002e-10 1.1684e-10 -1.90876e-10 6.06519e-10 1.9117599e-10 -1.05751e-10 3.51266e-10 1.16834e-10 7.730911 5.47488 0.41731405 -1.05753e-10 3.51258e-10 1.16835e-10 2.90554 0.965183 0.102902 -1.05751e-10 3.51257e-10 1.1683901e-10 10.2786 0.73180103 0.025912303 -1.05761e-10 3.51259e-10 1.16848e-10 2.2216702 -0.733487 -0.20892 8.4874895e-15 -8.2029e-14 -5.6294497e-14 -1.8101593 43.9534 -97.8684 23.704702 -18.555801 -48.6878 1.15379 28.973799 -4.46325 -5.5534e-10 2.41609e-10 -6.92669e-10 -9.75143e-10 4.3077297e-10 -1.1781099e-09 -5.5534e-10 2.41608e-10 -6.92663e-10 -7.730911 5.47488 -0.41731405 -5.55338e-10 2.41609e-10 -6.9266803e-10 -2.90554 0.965183 -0.102902 -5.55343e-10 2.41608e-10 -6.92671e-10 -10.2786 0.73180103 -0.025912303 -5.55338e-10 2.41612e-10 -6.9267797e-10 -2.2216702 -0.733487 0.20892 -2.03217e-16 8e-44 -3.88251e-19 -17.461498 -46.1928 -12.060499 -3.4317608 76.140205 3.782531 -8.44796 -21.842802 -13.5603 2.03217e-16 8e-44 3.88251e-19 33.5621 -43.0655 20.761501 2.5878503 72.99821 -2.9932013 -2.78795 -29.543598 -5.7200093
